<svg width="128" height="128" viewBox="0 0 128 128" fill="none" xmlns="http://www.w3.org/2000/svg">
    <g clip-path="url(#clip0_16_4)">
        <rect width="128" height="128" rx="8" fill="#E51515"/>
        <path d="M50.7273 80.9091V78.7273C50.7273 73.7273 51.1212 69.7424 51.9091 66.7727C52.697 63.803 53.8636 61.4242 55.4091 59.6364C56.9545 57.8182 58.8485 56.1818 61.0909 54.7273C63.0303 53.4545 64.7576 52.2273 66.2727 51.0455C67.8182 49.8636 69.0303 48.6061 69.9091 47.2727C70.8182 45.9394 71.2727 44.4242 71.2727 42.7273C71.2727 41.2121 70.9091 39.8788 70.1818 38.7273C69.4545 37.5758 68.4697 36.6818 67.2273 36.0455C65.9848 35.4091 64.6061 35.0909 63.0909 35.0909C61.4545 35.0909 59.9394 35.4697 58.5455 36.2273C57.1818 36.9848 56.0758 38.0303 55.2273 39.3636C54.4091 40.697 54 42.2424 54 44H30.7273C30.7879 37.3333 32.303 31.9242 35.2727 27.7727C38.2424 23.5909 42.1818 20.5303 47.0909 18.5909C52 16.6212 57.3939 15.6364 63.2727 15.6364C69.7576 15.6364 75.5455 16.5909 80.6364 18.5C85.7273 20.3788 89.7424 23.2273 92.6818 27.0454C95.6212 30.8333 97.0909 35.5758 97.0909 41.2727C97.0909 44.9394 96.4545 48.1667 95.1818 50.9545C93.9394 53.7121 92.197 56.1515 89.9545 58.2727C87.7424 60.3636 85.1515 62.2727 82.1818 64C80 65.2727 78.1667 66.5909 76.6818 67.9545C75.197 69.2879 74.0758 70.8182 73.3182 72.5455C72.5606 74.2424 72.1818 76.303 72.1818 78.7273V80.9091H50.7273ZM61.8182 111.455C58.303 111.455 55.2879 110.227 52.7727 107.773C50.2879 105.288 49.0606 102.273 49.0909 98.7273C49.0606 95.2727 50.2879 92.3182 52.7727 89.8636C55.2879 87.4091 58.303 86.1818 61.8182 86.1818C65.1515 86.1818 68.0909 87.4091 70.6364 89.8636C73.2121 92.3182 74.5152 95.2727 74.5455 98.7273C74.5152 101.091 73.8939 103.242 72.6818 105.182C71.5 107.091 69.9545 108.621 68.0455 109.773C66.1364 110.894 64.0606 111.455 61.8182 111.455Z" fill="white"/>
    </g>
    <defs>
        <clipPath id="clip0_16_4">
        <rect width="128" height="128" rx="8" fill="white"/>
        </clipPath>
    </defs>
</svg>
